<svg width="512" height="512" viewBox="0 0 512 512" fill="none" xmlns="http://www.w3.org/2000/svg">
  <defs>
    <linearGradient id="bg" x1="70" y1="58" x2="448" y2="463" gradientUnits="userSpaceOnUse">
      <stop stop-color="#FF4A1C"/>
      <stop offset="0.54" stop-color="#FF7A00"/>
      <stop offset="1" stop-color="#FFC247"/>
    </linearGradient>
    <radialGradient id="glow" cx="0" cy="0" r="1" gradientUnits="userSpaceOnUse" gradientTransform="translate(378 106) rotate(128) scale(302 240)">
      <stop stop-color="#FFE2A3" stop-opacity="0.78"/>
      <stop offset="0.42" stop-color="#FFB347" stop-opacity="0.2"/>
      <stop offset="1" stop-color="#FF6A00" stop-opacity="0"/>
    </radialGradient>
    <linearGradient id="mStroke" x1="132" y1="164" x2="380" y2="354" gradientUnits="userSpaceOnUse">
      <stop stop-color="#FFFFFF"/>
      <stop offset="1" stop-color="#FFF4DF"/>
    </linearGradient>
    <filter id="softShadow" x="74" y="109" width="364" height="297" filterUnits="userSpaceOnUse" color-interpolation-filters="sRGB">
      <feFlood flood-opacity="0" result="BackgroundImageFix"/>
      <feColorMatrix in="SourceAlpha" type="matrix" values="0 0 0 0 0 0 0 0 0 0 0 0 0 0 0 0 0 0 127 0" result="hardAlpha"/>
      <feOffset dy="14"/>
      <feGaussianBlur stdDeviation="16"/>
      <feComposite in2="hardAlpha" operator="out"/>
      <feColorMatrix type="matrix" values="0 0 0 0 0.42 0 0 0 0 0.12 0 0 0 0 0 0 0 0 0.22 0"/>
      <feBlend mode="normal" in2="BackgroundImageFix" result="effect1_dropShadow"/>
      <feBlend mode="normal" in="SourceGraphic" in2="effect1_dropShadow" result="shape"/>
    </filter>
  </defs>

  <rect x="16" y="16" width="480" height="480" rx="112" fill="url(#bg)"/>
  <rect x="16" y="16" width="480" height="480" rx="112" fill="url(#glow)"/>
  <circle cx="100" cy="404" r="126" fill="#FFFFFF" fill-opacity="0.16"/>
  <circle cx="420" cy="86" r="126" fill="#FFFFFF" fill-opacity="0.16"/>

  <g filter="url(#softShadow)">
    <path d="M132 346V186C132 166 158 158 170 176L256 306L342 176C354 158 380 166 380 186V346"
          stroke="url(#mStroke)" stroke-width="46" stroke-linecap="round" stroke-linejoin="round"/>
    <path d="M181 357C209 378 303 378 331 357" stroke="#FFF8EA" stroke-width="18" stroke-linecap="round"/>
  </g>

  <g opacity="0.9">
    <rect x="206" y="323" width="17" height="42" rx="8.5" fill="#271205" fill-opacity="0.25"/>
    <rect x="248" y="303" width="17" height="62" rx="8.5" fill="#271205" fill-opacity="0.25"/>
    <rect x="290" y="323" width="17" height="42" rx="8.5" fill="#271205" fill-opacity="0.25"/>
  </g>
</svg>
